<svg width="1280" height="320" viewBox="0 0 1280 320" fill="none" xmlns="http://www.w3.org/2000/svg" role="img" aria-label="Cadence — focus music for Claude Code">
  <defs>
    <linearGradient id="bbg" x1="0" y1="0" x2="1280" y2="320" gradientUnits="userSpaceOnUse">
      <stop stop-color="#171A2B"/>
      <stop offset="1" stop-color="#0B0D18"/>
    </linearGradient>
    <linearGradient id="bacc" x1="120" y1="240" x2="320" y2="80" gradientUnits="userSpaceOnUse">
      <stop stop-color="#22D3A6"/>
      <stop offset="1" stop-color="#7C5CFC"/>
    </linearGradient>
    <linearGradient id="btitle" x1="430" y1="0" x2="980" y2="0" gradientUnits="userSpaceOnUse">
      <stop stop-color="#EAEAFF"/>
      <stop offset="1" stop-color="#A8F0DD"/>
    </linearGradient>
    <linearGradient id="bwave" x1="430" y1="0" x2="1240" y2="0" gradientUnits="userSpaceOnUse">
      <stop stop-color="#7C5CFC" stop-opacity="0"/>
      <stop offset="0.5" stop-color="#9D8BFF" stop-opacity="0.7"/>
      <stop offset="1" stop-color="#22D3A6" stop-opacity="0"/>
    </linearGradient>
    <filter id="bglow" x="-40%" y="-40%" width="180%" height="180%">
      <feGaussianBlur stdDeviation="7" result="b"/>
      <feMerge><feMergeNode in="b"/><feMergeNode in="SourceGraphic"/></feMerge>
    </filter>
  </defs>

  <rect width="1280" height="320" rx="28" fill="url(#bbg)"/>

  <!-- icon mark -->
  <g transform="translate(96,96)">
    <rect x="0" y="0" width="128" height="128" rx="30" fill="#0B0D18" stroke="#2A2F4A" stroke-width="2"/>
    <g filter="url(#bglow)" transform="translate(0,0) scale(0.5)">
      <rect x="56"  y="112" width="18" height="32"  rx="9" fill="url(#bacc)"/>
      <rect x="86"  y="86"  width="18" height="84"  rx="9" fill="url(#bacc)"/>
      <rect x="116" y="64"  width="18" height="128" rx="9" fill="url(#bacc)"/>
      <rect x="146" y="92"  width="18" height="72"  rx="9" fill="url(#bacc)"/>
      <rect x="176" y="116" width="18" height="24"  rx="9" fill="url(#bacc)"/>
    </g>
  </g>

  <!-- wordmark -->
  <text x="270" y="150" font-family="'Segoe UI', 'Helvetica Neue', Arial, sans-serif" font-size="92" font-weight="800" fill="url(#btitle)" letter-spacing="-2">cadence</text>
  <text x="274" y="200" font-family="'Segoe UI', 'Helvetica Neue', Arial, sans-serif" font-size="30" font-weight="500" fill="#8A91B4" letter-spacing="0.5">focus music for Claude Code — matched to your task, tuned to your taste</text>

  <!-- cadence wave under the wordmark -->
  <path d="M272 244 C 360 214, 430 214, 500 244 S 640 274, 720 244 S 880 214, 960 244 S 1110 274, 1200 244"
        stroke="url(#bwave)" stroke-width="5" stroke-linecap="round" fill="none"/>
</svg>
